# xmcd
#
# Track frame offsets:
#	150
#	13222
#	24102
#	34845
#	47152
#	59920
#	70107
#	82517
#	94177
#	104827
#
# Disc length: 1597 seconds
#
# Revision: 0
# Processed by: cddbd v1.5.2PL0 Copyright (c) Steve Scherf et al.
# Submitted via: dBpowerAMP V4.0
#
DISCID=7f063b0a
DTITLE=Joan Sebastian - Tambora vol.2
DYEAR=1998
DGENRE=Cult
TTITLE0=La prietita que yo quiero
TTITLE1=La mosca muerta
TTITLE2=En la raya
TTITLE3=Muchachita  Pueblerina
TTITLE4=Mayra
TTITLE5=Muchahcita de ojos claros
TTITLE6=Pedacito de luna
TTITLE7=Soy como quiero ser
TTITLE8=A la sombra d eun gamuchil
TTITLE9=Sin pasaporte
EXTD=Esta bien chido, me lo dio mi marranini:;):)
EXTT0=
EXTT1=
EXTT2=
EXTT3=
EXTT4=
EXTT5=
EXTT6=
EXTT7=
EXTT8=
EXTT9=
PLAYORDER=
